<svg xmlns="http://www.w3.org/2000/svg" width="1200" height="630" viewBox="0 0 1200 630" role="img" aria-labelledby="title desc">
  <title id="title">Anurag Bhardwaj - Software Engineer</title>
  <desc id="desc">Open Graph image for Anurag Bhardwaj, Software Engineer at bijnis in New Delhi.</desc>
  <rect width="1200" height="630" fill="#f8f5ee"/>
  <path d="M0 0h1200v630H0z" fill="#f8f5ee"/>
  <g opacity="0.22" stroke="#0f766e" stroke-width="1">
    <path d="M0 90h1200M0 180h1200M0 270h1200M0 360h1200M0 450h1200M0 540h1200"/>
    <path d="M120 0v630M240 0v630M360 0v630M480 0v630M600 0v630M720 0v630M840 0v630M960 0v630M1080 0v630"/>
  </g>
  <rect x="72" y="72" width="1056" height="486" rx="8" fill="#ffffff" stroke="#d9d1c4" stroke-width="2"/>
  <rect x="112" y="112" width="92" height="92" rx="8" fill="#181713"/>
  <text x="158" y="172" text-anchor="middle" font-family="Inter, Arial, sans-serif" font-size="34" font-weight="800" fill="#f8f5ee">AB</text>
  <text x="112" y="278" font-family="Inter, Arial, sans-serif" font-size="76" font-weight="800" fill="#181713">Anurag Bhardwaj</text>
  <text x="116" y="348" font-family="Inter, Arial, sans-serif" font-size="38" font-weight="700" fill="#0b4f4a">Software Engineer at bijnis</text>
  <text x="116" y="410" font-family="Inter, Arial, sans-serif" font-size="28" fill="#625f57">React · Next.js · React Native · TypeScript · Node.js</text>
  <text x="116" y="482" font-family="Inter, Arial, sans-serif" font-size="24" font-weight="700" fill="#181713">ianuragab · New Delhi, India</text>
</svg>
